<svg xmlns="http://www.w3.org/2000/svg" width="31.999" height="31.892" viewBox="0 0 31.999 31.892">
  <g id="LogoutIcon" transform="translate(0 -0.85)">
    <g id="Group_6" data-name="Group 6" transform="translate(0 0.85)">
      <g id="Group_5" data-name="Group 5">
        <path id="Path_4" data-name="Path 4" d="M15.946,30.085H3.987a1.329,1.329,0,0,1-1.329-1.329V4.837A1.329,1.329,0,0,1,3.987,3.508h11.96a1.329,1.329,0,0,0,0-2.658H3.987A3.991,3.991,0,0,0,0,4.837V28.756a3.991,3.991,0,0,0,3.987,3.987h11.96a1.329,1.329,0,1,0,0-2.658Z" transform="translate(0 -0.85)" fill="#3c4e63"/>
      </g>
    </g>
    <g id="Group_8" data-name="Group 8" transform="translate(10.631 7.494)">
      <g id="Group_7" data-name="Group 7">
        <path id="Path_5" data-name="Path 5" d="M191.072,115.52l-8.079-7.973a1.329,1.329,0,0,0-1.866,1.892l5.774,5.7H171.429a1.329,1.329,0,0,0,0,2.658H186.9l-5.774,5.7a1.329,1.329,0,1,0,1.866,1.892l8.079-7.973a1.328,1.328,0,0,0,0-1.892Z" transform="translate(-170.1 -107.165)" fill="#3c4e63"/>
      </g>
    </g>
  </g>
</svg>
